<?xml version="1.0" encoding="utf-8"?>
<!-- Generator: Adobe Illustrator 15.1.0, SVG Export Plug-In . SVG Version: 6.00 Build 0)  -->
<!DOCTYPE svg PUBLIC "-//W3C//DTD SVG 1.1//EN" "http://www.w3.org/Graphics/SVG/1.1/DTD/svg11.dtd">
<svg version="1.1" id="Layer_1" xmlns="http://www.w3.org/2000/svg" xmlns:xlink="http://www.w3.org/1999/xlink" x="0px" y="0px"
	 width="200px" height="200px" viewBox="0 0 200 200" enable-background="new 0 0 200 200" xml:space="preserve">
<g>
	<path fill="#F67280" d="M134.678,132.893c-1.594,0-2.889,1.287-2.889,2.886c0,1.594,1.295,2.889,2.889,2.889
		c1.598,0,2.893-1.295,2.893-2.889C137.57,134.18,136.275,132.893,134.678,132.893z"/>
	<path fill="#F67280" d="M149.246,41.188H50.752c-5.645,0-10.219,4.575-10.219,10.22v98.494c0,5.645,4.574,10.22,10.219,10.22
		h98.494c5.645,0,10.221-4.575,10.221-10.22V51.408C159.467,45.764,154.891,41.188,149.246,41.188z M115.932,94.06
		c-0.973,2.188-1.475,4.55-1.475,6.946v20.328c0,14.36-11.641,26-26,26c-14.361,0-26.006-11.64-26.006-26V74.616
		c-2.465-0.875-4.406-2.817-5.279-5.286c-1.594-4.513,0.768-9.465,5.279-11.062c4.512-1.596,9.465,0.771,11.061,5.286
		c1.598,4.513-0.768,9.465-5.279,11.062v46.718c0,11.168,9.057,20.225,20.225,20.225s20.225-9.057,20.225-20.225v-12.316
		c0-1.018-0.83-1.849-1.855-1.849c-0.156,0-0.32,0.021-0.479,0.063l-6.336,1.7l16.758-16.758L115.932,94.06z M137.57,143.953
		c-4.512,1.592-9.465-0.771-11.059-5.286c-1.6-4.512,0.764-9.462,5.277-11.061V80.888c0-11.167-9.051-20.224-20.225-20.224
		c-11.168,0-20.225,9.057-20.225,20.224v12.316c0,1.019,0.832,1.849,1.855,1.849c0.156,0,0.322-0.02,0.479-0.062l6.338-1.7
		l-16.76,16.757l0.838-1.885c0.973-2.188,1.475-4.55,1.475-6.947V80.888c0-14.36,11.641-25.999,26-25.999
		c14.361,0,26.006,11.639,26.006,25.999v46.719c2.465,0.875,4.406,2.814,5.279,5.286
		C144.445,137.404,142.084,142.356,137.57,143.953z"/>
	<path fill="#F67280" d="M65.342,63.555c-1.598,0-2.891,1.295-2.891,2.884c0,1.597,1.293,2.892,2.891,2.892s2.891-1.295,2.891-2.892
		C68.232,64.85,66.939,63.555,65.342,63.555z"/>
</g>
</svg>
