<svg version="1.2" baseProfile="tiny-ps" xmlns="http://www.w3.org/2000/svg" viewBox="0 0 130 130" width="130" height="130">
	<title>graphic_red-svg</title>
	<style>
		tspan { white-space:pre }
		.shp0 { fill: #f67280 } 
	</style>
	<g id="Layer">
		<path id="Layer" class="shp0" d="M99.68 97.89C98.08 97.89 96.79 99.18 96.79 100.78C96.79 102.37 98.08 103.67 99.68 103.67C101.28 103.67 102.57 102.37 102.57 100.78C102.57 99.18 101.28 97.89 99.68 97.89Z" />
		<path id="Layer" fill-rule="evenodd" class="shp0" d="M124.47 16.41L124.47 114.9C124.47 120.55 119.89 125.12 114.25 125.12L15.75 125.12C10.11 125.12 5.53 120.55 5.53 114.9L5.53 16.41C5.53 10.76 10.11 6.19 15.75 6.19L114.25 6.19C119.89 6.19 124.47 10.76 124.47 16.41ZM81.77 57.17L65.01 73.93L71.35 72.23C71.51 72.19 71.67 72.17 71.83 72.17C72.85 72.17 73.68 73 73.68 74.02L73.68 86.33C73.68 97.5 64.63 106.56 53.46 106.56C42.29 106.56 33.23 97.5 33.23 86.33L33.23 39.62C37.74 38.02 40.11 33.07 38.51 28.55C36.92 24.04 31.96 21.67 27.45 23.27C22.94 24.87 20.58 29.82 22.17 34.33C23.05 36.8 24.99 38.74 27.45 39.62L27.45 86.33C27.45 100.69 39.1 112.33 53.46 112.33C67.82 112.33 79.46 100.69 79.46 86.33L79.46 66.01C79.46 63.61 79.96 61.25 80.93 59.06L81.77 57.17ZM107.85 97.89C106.97 95.42 105.03 93.48 102.57 92.61L102.57 45.89C102.57 31.53 90.92 19.89 76.56 19.89C62.2 19.89 50.56 31.53 50.56 45.89L50.56 66.22C50.56 68.61 50.06 70.98 49.09 73.16L48.25 75.05L65.01 58.29L58.67 59.99C58.52 60.03 58.35 60.05 58.19 60.05C57.17 60.05 56.34 59.22 56.34 58.2L56.34 45.89C56.34 34.72 65.39 25.66 76.56 25.66C87.74 25.66 96.79 34.72 96.79 45.89L96.79 92.61C92.27 94.21 89.91 99.16 91.51 103.67C93.1 108.18 98.06 110.55 102.57 108.95C107.08 107.36 109.44 102.4 107.85 97.89Z" />
		<path id="Layer" class="shp0" d="M30.34 28.56C28.74 28.56 27.45 29.85 27.45 31.44C27.45 33.04 28.74 34.33 30.34 34.33C31.94 34.33 33.23 33.04 33.23 31.44C33.23 29.85 31.94 28.56 30.34 28.56Z" />
	</g>
</svg>